# xmcd
#
# Track frame offsets: 
#        150
#        5517
#        22536
#        38538
#        54059
#        69302
#        83711
#        99473
#        112779
#        128617
#        140829
#        152365
#        164819
#        176227
#
# Disc length: 2579 seconds
#
# Revision: 0
# Processed by: cddbd v1.5.2PL0 Copyright (c) Steve Scherf et al.
# Submitted via: ExactAudioCopy v0.99pb3
#
DISCID=9d0a110e
DTITLE=Mr. P Chill - Soul in Transition
DYEAR=2007
DGENRE=Hip-Hop
TTITLE0=Intro/Take a Stand
TTITLE1=Emcees (feat: Emaculit 1 and Big Ant)
TTITLE2=Every Morning I Rise
TTITLE3=Trouble
TTITLE4=Recognize
TTITLE5=Never Was (feat: DJ Double Ace)
TTITLE6=Fans and Friends (Interlude)
TTITLE7=CG Connect (feat: King Blaze)
TTITLE8=National Security
TTITLE9=Pray
TTITLE10=Upright
TTITLE11=You Remind Me
TTITLE12=Visions of the Apocolypse (feat: Techmage)
TTITLE13=Hindsight
EXTD=
EXTT0=
EXTT1=
EXTT2=
EXTT3=
EXTT4=
EXTT5=
EXTT6=
EXTT7=
EXTT8=
EXTT9=
EXTT10=
EXTT11=
EXTT12=
EXTT13=
PLAYORDER=
